<svg width="811.843408203125px" height="250.42144165039062px" xmlns="http://www.w3.org/2000/svg" viewBox="-155.9217041015625 -50.21072082519531 811.843408203125 250.42144165039062" style="background: rgba(0, 0, 0, 0);" preserveAspectRatio="xMidYMid"><defs><filter id="editing-hole" x="-100%" y="-100%" width="300%" height="300%"><feFlood flood-color="#000" result="black"></feFlood><feMorphology operator="dilate" radius="2" in="SourceGraphic" result="erode"></feMorphology><feGaussianBlur in="erode" stdDeviation="4" result="blur"></feGaussianBlur><feOffset in="blur" dx="2" dy="2" result="offset"></feOffset><feComposite operator="atop" in="offset" in2="black" result="merge"></feComposite><feComposite operator="in" in="merge" in2="SourceGraphic" result="inner-shadow"></feComposite></filter></defs><g filter="url(#editing-hole)"><g transform="translate(-149.70001220703125, 161)"><path d="M24 0L2 0L26-132L69-132L100.20-41.20L116.80-132L139-131.80L114.60 0L68.80 0L40-87.40L24 0ZM225-33.80L225-33.80L225-33.80Q230-30.40 230-22.90L230-22.90L230-22.90Q230-15.40 226.20-10.60L226.20-10.60L226.20-10.60Q222.40-5.80 216.20-2.60L216.20-2.60L216.20-2.60Q203.40 4 189.60 4L189.60 4L189.60 4Q175.80 4 167.70 1L167.70 1L167.70 1Q159.60-2 154.20-7.60L154.20-7.60L154.20-7.60Q143.60-18.20 143.60-37.60L143.60-37.60L143.60-37.60Q143.60-67.80 160-86.20L160-86.20L160-86.20Q177.60-106 208.20-106L208.20-106L208.20-106Q227.20-106 236.60-98L236.60-98L236.60-98Q243.60-92 243.60-82.20L243.60-82.20L243.60-82.20Q243.60-47 182.80-47L182.80-47L182.80-47Q182-41.80 182-37.40L182-37.40L182-37.40Q182-28.20 186.10-24.70L186.10-24.70L186.10-24.70Q190.20-21.20 197.80-21.20L197.80-21.20L197.80-21.20Q205.40-21.20 213.50-24.70L213.50-24.70L213.50-24.70Q221.60-28.20 225-33.80ZM184.20-55.60L184.20-55.60L184.20-55.60Q198.40-55.60 206.60-64.40L206.60-64.40L206.60-64.40Q214.80-72.80 214.80-86.20L214.80-86.20L214.80-86.20Q214.80-90.80 213.10-93.30L213.10-93.30L213.10-93.30Q211.40-95.80 208-95.80L208-95.80L208-95.80Q204.60-95.80 201.70-94.50L201.70-94.50L201.70-94.50Q198.80-93.20 195.80-88.80L195.80-88.80L195.80-88.80Q188.40-78.80 184.20-55.60ZM343.60-13.70L343.60-13.70L343.60-13.70Q335.20-5.20 323.70-0.60L323.70-0.60L323.70-0.60Q312.20 4 300.80 4L300.80 4L300.80 4Q289.40 4 285.40 2L285.40 2L279.20 36L238.60 40L266.20-102L298.80-105.40L296.20-91.60L296.20-91.60Q304.60-105.80 322-105.80L322-105.80L322-105.80Q341.60-105.80 352-93.20L352-93.20L352-93.20Q361.20-81.80 361.20-64.40L361.20-64.40L361.20-64.40Q361.20-47 356.60-34.60L356.60-34.60L356.60-34.60Q352-22.20 343.60-13.70ZM298.40-69.80L287.80-11.20L287.80-11.20Q292-7.60 297.20-7.60L297.20-7.60L297.20-7.60Q302.40-7.60 305.40-9.60L305.40-9.60L305.40-9.60Q308.40-11.60 310.60-15.60L310.60-15.60L310.60-15.60Q316.60-26.40 321.40-59.20L321.40-59.20L321.40-59.20Q322.80-68.80 322.80-78.20L322.80-78.20L322.80-78.20Q322.80-87.60 320.70-90.60L320.70-90.60L320.70-90.60Q318.60-93.60 314.60-93.60L314.60-93.60L314.60-93.60Q302.40-93.60 298.40-69.80L298.40-69.80ZM376.40-20L376.40-20L376.40-20Q376.40-25.40 379.20-39L379.20-39L389.80-93L378-93L378.80-99L378.80-99Q402.80-106.20 426-123.80L426-123.80L435.60-123.80L430.80-102L446.40-102L444.60-93L429.20-93L419-39L419-39Q416.40-26.60 416.40-22.40L416.40-22.40L416.40-22.40Q416.40-12.80 424.80-10.80L424.80-10.80L424.80-10.80Q422.80-4 415.60 0L415.60 0L415.60 0Q408.40 4 398.20 4L398.20 4L398.20 4Q388 4 382.20-2.40L382.20-2.40L382.20-2.40Q376.40-8.80 376.40-20ZM509.60-8.40L509.60-8.40L509.60-8.40Q500 4 476.20 4L476.20 4L476.20 4Q463.80 4 454.80-3.50L454.80-3.50L454.80-3.50Q445.80-11 445.80-21.80L445.80-21.80L445.80-21.80Q445.80-27.80 446.40-30.80L446.40-30.80L459.80-102L500.40-106L485.80-28.80L485.80-28.80Q485-24.40 485-21.80L485-21.80L485-21.80Q485-10.20 492-10.20L492-10.20L492-10.20Q499.80-10.20 505.40-20.80L505.40-20.80L505.40-20.80Q507.20-24.20 508-28.60L508-28.60L522.20-102L561.60-106L546.80-28L546.80-28Q546.20-25 546.20-21.80L546.20-21.80L546.20-21.80Q546.20-18.60 548-15.10L548-15.10L548-15.10Q549.80-11.60 555.60-10.80L555.60-10.80L555.60-10.80Q554.40-6 550.20-2.80L550.20-2.80L550.20-2.80Q541.40 4 531.90 4L531.90 4L531.90 4Q522.40 4 516.80 0.60L516.80 0.60L516.80 0.60Q511.20-2.80 509.60-8.40ZM657 4L657 4L657 4Q632.80 4 632.80-14.80L632.80-14.80L632.80-14.80Q633-20 634.60-28.80L634.60-28.80L638.20-47.20L638.20-47.20Q643.60-73.20 643.60-79L643.60-79L643.60-79Q643.60-90.60 636.80-90.60L636.80-90.60L636.80-90.60Q625.40-90.60 619.40-60.80L619.40-60.80L607.60 0L567.40 4L588.20-102.20L621-106L617.80-86.40L617.80-86.40Q627.20-106 656-106L656-106L656-106Q670-106 675.90-100.10L675.90-100.10L675.90-100.10Q681.80-94.20 681.80-81L681.80-81L681.80-81Q681.80-68.60 675.40-39.60L675.40-39.60L675.40-39.60Q672.40-26.60 672.40-21.70L672.40-21.70L672.40-21.70Q672.40-16.80 675.10-14L675.10-14L675.10-14Q677.80-11.20 681.80-10.80L681.80-10.80L681.80-10.80Q679.80-4 672.90 0L672.90 0L672.90 0Q666 4 657 4ZM778.80-33.80L778.80-33.80L778.80-33.80Q783.80-30.40 783.80-22.90L783.80-22.90L783.80-22.90Q783.80-15.40 780-10.60L780-10.60L780-10.60Q776.20-5.80 770-2.60L770-2.60L770-2.60Q757.20 4 743.40 4L743.40 4L743.40 4Q729.60 4 721.50 1L721.50 1L721.50 1Q713.40-2 708-7.60L708-7.60L708-7.60Q697.40-18.20 697.40-37.60L697.40-37.60L697.40-37.60Q697.40-67.80 713.80-86.20L713.80-86.20L713.80-86.20Q731.40-106 762-106L762-106L762-106Q781-106 790.40-98L790.40-98L790.40-98Q797.40-92 797.40-82.20L797.40-82.20L797.40-82.20Q797.40-47 736.60-47L736.60-47L736.60-47Q735.80-41.80 735.80-37.40L735.80-37.40L735.80-37.40Q735.80-28.20 739.90-24.70L739.90-24.70L739.90-24.70Q744-21.20 751.60-21.20L751.60-21.20L751.60-21.20Q759.20-21.20 767.30-24.70L767.30-24.70L767.30-24.70Q775.40-28.20 778.80-33.80ZM738-55.60L738-55.60L738-55.60Q752.20-55.60 760.40-64.40L760.40-64.40L760.40-64.40Q768.60-72.80 768.60-86.20L768.60-86.20L768.60-86.20Q768.60-90.80 766.90-93.30L766.90-93.30L766.90-93.30Q765.20-95.80 761.80-95.80L761.80-95.80L761.80-95.80Q758.40-95.80 755.50-94.50L755.50-94.50L755.50-94.50Q752.60-93.20 749.60-88.80L749.60-88.80L749.60-88.80Q742.20-78.80 738-55.60Z" fill="#ccc"></path></g></g><style>text {
  font-size: 64px;
  font-family: Arial Black;
  dominant-baseline: central;
  text-anchor: middle;
}</style></svg>